<?xml version="1.0" encoding="UTF-8"?> <svg xmlns="http://www.w3.org/2000/svg" width="253" height="253" viewBox="0 0 253 253" fill="none"><circle cx="126.5" cy="126.5" r="126.5" fill="#B32C7D"></circle><path d="M40.8156 160V158.835C45.7673 158.835 48.7771 155.728 48.7771 142.524V100.483C48.7771 96.4055 46.6411 93.2985 41.3011 93.2015V92.0364H58.1949L84.0211 149.029L106.061 92.0364H123.44V93.2015C118.391 93.2015 116.061 93.9782 116.061 100.289V151.747C116.061 158.058 118.391 158.835 123.44 158.835V160H97.3225V158.835C102.274 158.835 104.701 158.058 104.701 151.747V99.8036L81.3025 160.194H76.7393L50.3305 101.843V142.524C50.3305 155.728 54.2142 158.641 61.1076 158.835V160H40.8156ZM129.373 160V158.835C134.325 158.835 137.335 155.728 137.335 142.524V100.483C137.335 96.4055 135.199 93.2985 129.859 93.2015V92.0364H146.752L172.579 149.029L194.618 92.0364H211.998V93.2015C206.949 93.2015 204.619 93.9782 204.619 100.289V151.747C204.619 158.058 206.949 158.835 211.998 158.835V160H185.88V158.835C190.832 158.835 193.259 158.058 193.259 151.747V99.8036L169.86 160.194H165.297L138.888 101.843V142.524C138.888 155.728 142.772 158.641 149.665 158.835V160H129.373Z" fill="white"></path></svg> 